<?xml version="1.0" standalone="no"?>
<!DOCTYPE svg PUBLIC "-//W3C//DTD SVG 20010904//EN"
 "http://www.w3.org/TR/2001/REC-SVG-20010904/DTD/svg10.dtd">
<svg version="1.0" xmlns="http://www.w3.org/2000/svg"
 width="700.000000pt" height="700.000000pt" viewBox="0 0 700.000000 700.000000"
 preserveAspectRatio="xMidYMid meet">
<metadata>
Created by potrace 1.14, written by Peter Selinger 2001-2017
</metadata>
<g transform="translate(0.000000,700.000000) scale(0.100000,-0.100000)"
fill="#000000" stroke="none">
<path d="M3315 6884 c-22 -2 -92 -9 -155 -15 -759 -71 -1596 -419 -2230 -925
-158 -127 -415 -379 -523 -514 -127 -161 -224 -315 -254 -405 -22 -67 -26 -99
-26 -195 -1 -125 14 -200 60 -296 l25 -54 -26 -157 c-47 -286 -59 -427 -59
-733 -1 -387 28 -640 110 -970 251 -1014 908 -1805 1838 -2215 844 -373 1881
-390 2745 -45 546 218 1022 579 1365 1035 337 448 551 963 644 1550 36 232 45
363 44 650 0 300 -12 447 -59 727 l-26 158 20 42 c78 167 91 344 36 506 -53
158 -229 397 -474 643 -319 320 -690 580 -1125 790 -461 221 -912 354 -1390
409 -96 11 -473 21 -540 14z m529 -149 c1090 -116 2245 -772 2780 -1580 85
-128 107 -186 113 -300 9 -157 -46 -306 -158 -429 -79 -86 -161 -144 -290
-205 -137 -66 -268 -103 -490 -141 -210 -35 -305 -58 -418 -100 -233 -86 -426
-214 -731 -485 -357 -318 -489 -388 -750 -402 -111 -6 -117 -5 -167 21 -150
75 -317 75 -468 -2 -47 -24 -56 -25 -165 -19 -255 14 -392 85 -717 373 -293
260 -404 342 -592 438 -182 93 -300 126 -667 191 -406 71 -689 240 -804 480
-48 100 -64 182 -57 288 6 106 32 172 114 294 231 346 592 683 1013 946 587
366 1187 576 1840 640 103 11 489 5 614 -8z m-3344 -2560 c193 -125 373 -185
727 -244 413 -68 633 -185 1047 -555 325 -291 488 -385 718 -417 65 -9 88 -15
84 -25 -16 -40 -16 -94 -2 -186 9 -57 29 -206 46 -333 150 -1135 255 -1654
354 -1744 l26 -24 26 24 c101 92 179 480 356 1754 52 375 59 449 46 496 -8 26
-8 26 80 38 241 34 383 117 727 426 50 45 104 92 121 106 17 13 62 49 101 81
250 202 480 304 816 359 421 70 660 165 848 337 l57 52 11 -62 c44 -253 63
-701 42 -975 -65 -844 -385 -1576 -927 -2117 -527 -527 -1230 -843 -2020 -907
-183 -15 -572 -6 -734 16 -465 64 -901 213 -1270 435 -757 455 -1265 1197
-1450 2120 -55 275 -65 392 -64 760 0 330 9 457 45 668 l11 62 57 -52 c31 -28
85 -70 121 -93z"/>
<path d="M3295 3574 c-172 -24 -339 -65 -406 -100 -38 -19 -55 -65 -39 -104
23 -56 100 -76 177 -45 142 55 405 84 606 67 131 -12 268 -39 340 -67 108 -43
213 19 177 105 -14 35 -36 48 -131 79 -144 47 -253 62 -479 66 -118 2 -228 1
-245 -1z"/>
<path d="M1556 3375 c-87 -31 -178 -142 -217 -263 -29 -93 -36 -262 -15 -361
19 -88 64 -189 110 -246 82 -99 217 -128 325 -70 238 130 285 626 81 858 -76
86 -185 118 -284 82z"/>
<path d="M5253 3365 c-210 -106 -291 -494 -159 -760 46 -92 83 -135 147 -170
44 -24 66 -29 119 -29 183 1 316 187 327 459 13 292 -119 509 -315 522 -58 4
-74 1 -119 -22z"/>
</g>
</svg>
