<svg width="100" height="100" viewBox="0 0 100 100" fill="none" xmlns="http://www.w3.org/2000/svg">
<path d="M86.8749 72.5L83.4374 67.1875C77.4999 58.4375 74.3749 48.125 74.3749 37.5C74.3749 26.25 66.8749 17.1875 56.8749 14.0625C55.9374 11.25 53.1249 9.375 49.9999 9.375C46.8749 9.375 44.0624 11.25 43.1249 14.0625C33.1249 17.1875 25.6249 26.25 25.6249 37.5C25.6249 48.125 22.4999 58.4375 16.5624 67.1875L13.1249 72.5C11.5624 75 13.1249 78.125 16.2499 78.125H83.7499C86.8749 78.125 88.4374 75 86.8749 72.5Z" stroke="#313131" stroke-width="2" stroke-miterlimit="10" stroke-linecap="round" stroke-linejoin="round"/>
<path d="M62.5 78.125C62.5 85 56.875 90.625 50 90.625C43.125 90.625 37.5 85 37.5 78.125" stroke="#313131" stroke-width="2" stroke-miterlimit="10" stroke-linecap="round" stroke-linejoin="round"/>
</svg>
