<svg width="40" height="29" viewBox="0 0 40 29" fill="none" xmlns="http://www.w3.org/2000/svg">
<path fill-rule="evenodd" clip-rule="evenodd" d="M16 24C24.8366 24 32 18.6274 32 12C32 5.3726 24.8366 0 16 0C7.1634 0 0 5.3726 0 12C0 14.6842 1.17509 17.1626 3.16049 19.1616C2.35561 21.4537 1.31284 23.1723 0.6499 24.1319C0.4071 24.4834 0.65714 24.9802 1.08289 24.9453C2.78453 24.8058 6.1224 24.3105 8.3741 22.5519C10.6411 23.4754 13.2389 24 16 24Z" fill="url(#paint0_linear_2_8)"/>
<path fill-rule="evenodd" clip-rule="evenodd" d="M18.7843 25.8337C27.4033 24.7928 34 18.9957 34 12.0002C34 11.4632 33.9611 10.9333 33.8855 10.4121C37.5534 12.1003 40 15.136 40 18.6002C40 20.7476 39.0599 22.7303 37.4716 24.3295C38.068 26.0278 38.8276 27.3325 39.3579 28.1259C39.5953 28.481 39.3423 28.9779 38.917 28.9372C37.5041 28.8021 35.0109 28.3773 33.3007 27.0418C31.4872 27.7806 29.4089 28.2002 27.2 28.2002C23.9781 28.2002 21.0343 27.3074 18.7843 25.8337Z" fill="url(#paint1_linear_2_8)"/>
<defs>
<linearGradient id="paint0_linear_2_8" x1="16" y1="0" x2="16" y2="24.947" gradientUnits="userSpaceOnUse">
<stop stop-color="#5802EB"/>
<stop offset="1" stop-color="#307FF4"/>
</linearGradient>
<linearGradient id="paint1_linear_2_8" x1="29.3922" y1="10.4121" x2="29.3922" y2="28.9396" gradientUnits="userSpaceOnUse">
<stop stop-color="#5802EB"/>
<stop offset="0.9999" stop-color="#307FF4"/>
<stop offset="1" stop-color="#333333" stop-opacity="0"/>
</linearGradient>
</defs>
</svg>
