<svg width="512" height="512" viewBox="0 0 512 512" fill="none" xmlns="http://www.w3.org/2000/svg">
<path d="M20.725 184.366L490.977 183.011C495.73 204.443 498.255 226.881 498.255 249.994C498.256 401.401 389.85 499 256 499C122.15 499 13.744 401.401 13.744 249.994C13.744 227.367 16.1643 205.387 20.725 184.366Z" fill="#579BFF" stroke="#313131" stroke-width="10"/>
<path d="M256 364C300.183 364 336 339.376 336 309C336 278.624 300.183 254 256 254C211.817 254 176 278.624 176 309C176 339.376 211.817 364 256 364Z" fill="#307FF4"/>
<path d="M26.718 179.377C22.191 199.002 19.633 219.502 19.011 240.558C80.038 275.635 98.712 216.4 226 288V178.803L26.718 179.377Z" fill="#307FF4"/>
<path d="M485.282 179.377C489.809 199.002 492.367 219.502 492.989 240.558C431.962 275.635 413.288 216.4 286 288V178.803L485.282 179.377Z" fill="#307FF4"/>
<path d="M19.0321 138.57H19.0322C39.0515 105.154 74.4558 73.7138 116.983 50.6143C159.478 27.5318 208.682 13 256 13C303.318 13 352.522 27.5318 395.017 50.6143C437.544 73.7138 472.949 105.154 492.968 138.57C499.361 149.24 501.076 166.669 491.756 182.718C482.525 198.612 461.954 213.924 422.383 219.041C384.343 223.961 362.631 242.897 343.861 259.819C343.514 260.132 343.168 260.444 342.824 260.755C324.424 277.351 309.292 291 283.837 291H228.163C202.708 291 187.576 277.351 169.176 260.754C168.831 260.444 168.486 260.132 168.139 259.819C149.369 242.897 127.657 223.961 89.6173 219.041C50.0457 213.924 29.4746 198.612 20.244 182.718C10.9233 166.669 12.6389 149.24 19.0321 138.57Z" fill="#8C82F2" stroke="#313131" stroke-width="10"/>
<path d="M285.498 303.771C284.333 309.871 282.665 322.53 280.621 338.041L280.521 338.798C278.396 354.927 275.857 374.151 273.029 392.622C270.197 411.108 267.087 428.762 263.825 441.767C262.19 448.288 260.546 453.518 258.928 457.074C258.114 458.863 257.367 460.089 256.726 460.83C256.349 461.264 256.107 461.423 256 461.478C255.893 461.423 255.651 461.264 255.274 460.83C254.633 460.089 253.886 458.863 253.072 457.074C251.454 453.518 249.81 448.288 248.175 441.767C244.913 428.762 241.803 411.108 238.971 392.622C236.143 374.151 233.604 354.927 231.479 338.798L231.379 338.042C229.335 322.53 227.667 309.871 226.502 303.771C226.598 297.703 230.511 292.459 236.402 288.589C242.353 284.68 249.879 282.5 256 282.5C262.121 282.5 269.647 284.68 275.598 288.589C281.489 292.459 285.402 297.703 285.498 303.771Z" fill="#313131" stroke="#313131" stroke-width="5"/>
<path d="M25.84 314C35.047 354.851 53 388.5 78 417C121.991 397.524 136 327 136 327L104.5 273C104.5 273 72.868 312.332 25.84 314Z" fill="#466693" fill-opacity="0.6"/>
<path d="M486.15 314C476.943 354.851 458.84 388.5 433.84 417C389.849 397.524 375.84 327 375.84 327L407.5 273C407.5 273 439.122 312.332 486.15 314Z" fill="#466693" fill-opacity="0.6"/>
<path d="M120 331.5C129.941 331.5 138 317.397 138 300C138 282.603 129.941 268.5 120 268.5C110.059 268.5 102 282.603 102 300C102 317.397 110.059 331.5 120 331.5Z" fill="#313131"/>
<path d="M392 331.5C401.941 331.5 410 317.397 410 300C410 282.603 401.941 268.5 392 268.5C382.059 268.5 374 282.603 374 300C374 317.397 382.059 331.5 392 331.5Z" fill="#313131"/>
<path d="M387.615 52.25C347 31 300.705 18 256 18C211.295 18 165 31 124.384 52.25C178.691 83.354 204.305 235 256 235C307.695 235 333.309 83.354 387.615 52.25Z" fill="#579BFF" fill-opacity="0.7"/>
<path d="M120 264C106.318 264 96 279.477 96 300C96 320.523 106.318 336 120 336C133.682 336 144 320.523 144 300C144 279.477 133.682 264 120 264ZM120 320C117.678 320 112 312.991 112 300C112 287.009 117.678 280 120 280C122.322 280 128 287.009 128 300C128 312.991 122.322 320 120 320Z" fill="#313131"/>
<path d="M392 264C378.318 264 368 279.477 368 300C368 320.523 378.318 336 392 336C405.682 336 416 320.523 416 300C416 279.477 405.682 264 392 264ZM392 320C389.678 320 384 312.991 384 300C384 287.009 389.678 280 392 280C394.322 280 400 287.009 400 300C400 312.991 394.322 320 392 320Z" fill="#313131"/>
<path d="M219.322 269.378C229.398 265.48 242.424 263.332 256 263.332C269.576 263.332 282.602 265.48 292.678 269.378C293.769 269.801 294.914 270 296.042 270C299.06 270 301.949 268.57 303.303 266.139C305.164 262.801 303.424 258.837 299.417 257.286C287.274 252.587 271.855 250 256 250C240.145 250 224.726 252.587 212.583 257.286C208.576 258.837 206.836 262.801 208.697 266.139C210.558 269.479 215.315 270.927 219.322 269.378Z" fill="#313131"/>
</svg>
