<svg width="637" height="767" viewBox="0 0 937 867" fill="none" xmlns="http://www.w3.org/2000/svg">
<g opacity="0.5">
<path d="M954 1C854.321 49.6408 639.677 153.647 575.188 588.725C509.045 1034.97 88.418 1034.56 1 1019.77" stroke="white" stroke-width="0.5"/>
<path d="M983 1C883.426 49.6408 669.007 153.647 604.586 588.725C538.512 1034.97 118.326 1034.56 31 1019.77" stroke="white" stroke-width="0.5"/>
<path d="M1013 1C913.321 49.6408 698.677 153.647 634.188 588.725C568.045 1034.97 147.418 1034.56 60 1019.77" stroke="white" stroke-width="0.5"/>
<path d="M1042 1C942.426 49.6408 728.007 153.647 663.586 588.725C597.512 1034.97 177.326 1034.56 90 1019.77" stroke="white" stroke-width="0.5"/>
<path d="M1072 1C972.321 49.6408 757.677 153.647 693.188 588.725C627.045 1034.97 206.418 1034.56 119 1019.77" stroke="white" stroke-width="0.5"/>
<path d="M1102 1C1002.32 49.6408 787.677 153.647 723.188 588.725C657.045 1034.97 236.418 1034.56 149 1019.77" stroke="white" stroke-width="0.5"/>
<path d="M1131 1C1031.43 49.6408 817.007 153.647 752.586 588.725C686.512 1034.97 266.326 1034.56 179 1019.77" stroke="white" stroke-width="0.5"/>
<path d="M1161 1C1061.32 49.6408 846.677 153.647 782.188 588.725C716.045 1034.97 295.418 1034.56 208 1019.77" stroke="white" stroke-width="0.5"/>
<path d="M1190 1C1090.43 49.6408 876.007 153.647 811.586 588.725C745.512 1034.97 325.326 1034.56 238 1019.77" stroke="white" stroke-width="0.5"/>
<path d="M1220 1C1120.32 49.6408 905.677 153.647 841.188 588.725C775.045 1034.97 354.418 1034.56 267 1019.77" stroke="white" stroke-width="0.5"/>
</g>
</svg>
