<svg width="693" height="853" viewBox="0 0 693 853" fill="none" xmlns="http://www.w3.org/2000/svg">
<g opacity="0.5">
<path d="M426 -171C326.321 -122.359 111.677 -18.353 47.1885 416.725C-18.9549 862.965 -439.582 862.562 -527 847.768" stroke="white" stroke-width="0.5"/>
<path d="M455 -171C355.426 -122.359 141.007 -18.353 76.5859 416.725C10.512 862.965 -409.674 862.562 -497 847.768" stroke="white" stroke-width="0.5"/>
<path d="M485 -171C385.321 -122.359 170.677 -18.353 106.188 416.725C40.0451 862.965 -380.582 862.562 -468 847.768" stroke="white" stroke-width="0.5"/>
<path d="M514 -171C414.426 -122.359 200.007 -18.353 135.586 416.725C69.512 862.965 -350.674 862.562 -438 847.768" stroke="white" stroke-width="0.5"/>
<path d="M544 -171C444.321 -122.359 229.677 -18.353 165.188 416.725C99.0451 862.965 -321.582 862.562 -409 847.768" stroke="white" stroke-width="0.5"/>
<path d="M574 -171C474.321 -122.359 259.677 -18.353 195.188 416.725C129.045 862.965 -291.582 862.562 -379 847.768" stroke="white" stroke-width="0.5"/>
<path d="M603 -171C503.426 -122.359 289.007 -18.353 224.586 416.725C158.512 862.965 -261.674 862.562 -349 847.768" stroke="white" stroke-width="0.5"/>
<path d="M633 -171C533.321 -122.359 318.677 -18.353 254.188 416.725C188.045 862.965 -232.582 862.562 -320 847.768" stroke="white" stroke-width="0.5"/>
<path d="M662 -171C562.426 -122.359 348.007 -18.353 283.586 416.725C217.512 862.965 -202.674 862.562 -290 847.768" stroke="white" stroke-width="0.5"/>
<path d="M692 -171C592.321 -122.359 377.677 -18.353 313.188 416.725C247.045 862.965 -173.582 862.562 -261 847.768" stroke="white" stroke-width="0.5"/>
</g>
</svg>
