<svg width="34" height="34" viewBox="0 0 204 207" fill="#fff" xmlns="http://www.w3.org/2000/svg">
<path d="M152.688 50.5965C145.789 43.1062 137.611 37.286 128.38 33.2976C127.043 32.7224 125.498 32.9944 124.438 33.9977C123.374 35.0011 122.997 36.5431 123.471 37.9331C131.835 62.3598 125.173 89.533 106.505 107.159C87.8304 124.786 60.5912 129.62 37.1104 119.466C35.7848 118.893 34.2288 119.163 33.1688 120.166C32.1046 121.17 31.728 122.712 32.2014 124.102C35.4915 133.706 40.6558 142.372 47.5541 149.858C60.6458 164.073 78.4241 172.277 97.6114 172.955C98.4717 172.986 99.328 173 100.184 173C118.429 173 135.731 166.112 149.141 153.449C163.186 140.192 171.285 122.194 171.955 102.767C172.623 83.3409 165.783 64.8135 152.688 50.5965ZM164.622 102.508C164.02 119.95 156.744 136.111 144.137 148.014C131.53 159.916 115.091 166.169 97.8676 165.527C80.6368 164.92 64.6759 157.555 52.921 144.789C48.5884 140.089 45.0193 134.871 42.2561 129.215C66.41 136.376 92.8146 130.244 111.508 112.595C130.204 94.9437 138.088 68.6988 132.716 43.8074C138.099 46.9925 142.991 50.9622 147.32 55.6665C159.078 68.43 165.221 85.0673 164.622 102.508Z" fill="#fff"/>
<path d="M166.607 163.757C165.214 162.364 162.958 162.364 161.565 163.757C160.172 165.15 160.172 167.406 161.565 168.799L169.128 176.362C169.824 177.058 170.737 177.407 171.649 177.407C172.561 177.407 173.474 177.059 174.17 176.362C175.563 174.969 175.563 172.713 174.17 171.32L166.607 163.757Z" fill="#fff"/>
<path d="M169.128 30.259L161.565 37.824C160.172 39.217 160.172 41.475 161.565 42.866C162.261 43.562 163.174 43.911 164.086 43.911C164.998 43.911 165.911 43.563 166.607 42.866L174.17 35.301C175.563 33.908 175.563 31.65 174.17 30.259C172.777 28.866 170.521 28.866 169.128 30.259Z" fill="#fff"/>
<path d="M102.311 188.793C100.34 188.793 98.7451 190.39 98.7451 192.359V203.056C98.7451 205.025 100.34 206.622 102.311 206.622C104.282 206.622 105.877 205.025 105.877 203.056V192.359C105.877 190.39 104.282 188.793 102.311 188.793Z" fill="#fff"/>
<path d="M200.371 99.7451H189.674C187.703 99.7451 186.108 101.342 186.108 103.311C186.108 105.28 187.703 106.877 189.674 106.877H200.371C202.342 106.877 203.937 105.28 203.937 103.311C203.937 101.342 202.341 99.7451 200.371 99.7451Z" fill="#fff"/>
<path d="M38.0151 42.866C38.7111 43.562 39.6241 43.911 40.5361 43.911C41.4481 43.911 42.3611 43.563 43.0571 42.866C44.4501 41.475 44.4501 39.217 43.0571 37.824L35.4941 30.259C34.1011 28.866 31.8451 28.866 30.4521 30.259C29.0591 31.65 29.0591 33.908 30.4521 35.301L38.0151 42.866Z" fill="#fff"/>
<path d="M38.0151 163.757L30.4521 171.32C29.0591 172.713 29.0591 174.969 30.4521 176.362C31.1481 177.058 32.0611 177.407 32.9731 177.407C33.8851 177.407 34.7981 177.059 35.4941 176.362L43.0571 168.799C44.4501 167.406 44.4501 165.15 43.0571 163.757C41.6641 162.364 39.4081 162.364 38.0151 163.757Z" fill="#fff"/>
<path d="M102.311 17.829C104.282 17.829 105.877 16.232 105.877 14.263V3.566C105.877 1.597 104.282 0 102.311 0C100.34 0 98.7451 1.597 98.7451 3.566V14.263C98.7451 16.232 100.34 17.829 102.311 17.829Z" fill="#fff"/>
<path d="M14.9491 99.7451H4.25106C2.28006 99.7451 0.685059 101.342 0.685059 103.311C0.685059 105.28 2.28006 106.877 4.25106 106.877H14.9481C16.9191 106.877 18.5141 105.28 18.5141 103.311C18.5141 101.342 16.9191 99.7451 14.9491 99.7451Z" fill="#fff"/>
</svg>
