<?xml version="1.0" standalone="no"?>
<!DOCTYPE svg PUBLIC "-//W3C//DTD SVG 20010904//EN"
 "http://www.w3.org/TR/2001/REC-SVG-20010904/DTD/svg10.dtd">
<svg version="1.0" xmlns="http://www.w3.org/2000/svg"
 width="700.000000pt" height="700.000000pt" viewBox="0 0 700.000000 700.000000"
 preserveAspectRatio="xMidYMid meet">
<metadata>
Created by potrace 1.14, written by Peter Selinger 2001-2017
</metadata>
<g transform="translate(0.000000,700.000000) scale(0.100000,-0.100000)"
fill="#000000" stroke="none">
<path d="M3330 6884 c-178 -15 -288 -27 -368 -40 -1036 -163 -2076 -763 -2629
-1514 -138 -188 -186 -285 -204 -419 -17 -120 4 -253 58 -374 l27 -59 -27
-162 c-47 -278 -59 -429 -60 -726 -1 -383 30 -646 115 -984 332 -1326 1367
-2256 2733 -2456 495 -72 1023 -38 1503 96 1143 319 1988 1194 2280 2360 85
338 115 600 115 984 0 297 -13 448 -60 726 l-27 162 27 59 c56 124 75 256 57
379 -21 136 -65 226 -203 414 -432 587 -1172 1093 -1988 1359 -267 87 -531
145 -794 176 -129 15 -468 27 -555 19z m485 -145 c860 -74 1821 -526 2451
-1154 163 -162 273 -294 371 -446 80 -124 103 -192 103 -307 0 -174 -51 -293
-185 -428 -177 -179 -369 -260 -780 -330 -323 -55 -530 -132 -750 -279 -115
-77 -190 -138 -395 -320 -192 -171 -302 -254 -405 -304 -108 -54 -178 -71
-317 -78 -112 -6 -120 -5 -175 20 -166 74 -300 74 -466 0 -54 -25 -63 -26
-175 -20 -266 13 -385 79 -772 427 -385 347 -641 478 -1078 550 -426 71 -639
163 -815 350 -116 124 -167 249 -167 412 0 115 23 183 103 307 98 152 208 284
371 446 298 297 633 533 1059 745 512 256 1056 400 1592 424 96 4 286 -3 430
-15z m-3324 -2556 c74 -51 220 -121 331 -158 97 -32 207 -56 483 -105 268 -47
504 -158 740 -345 39 -31 135 -113 214 -183 374 -330 499 -400 782 -437 l46
-6 -14 -42 c-12 -34 -13 -54 -4 -102 5 -33 29 -197 51 -365 143 -1070 228
-1530 313 -1700 36 -72 58 -91 85 -74 97 61 201 563 352 1699 16 127 39 291
51 365 19 122 19 139 6 178 -8 23 -12 42 -8 42 37 0 209 33 253 49 143 49 297
151 486 320 361 323 521 434 765 528 107 41 205 65 407 97 349 57 580 150 773
312 52 43 77 59 81 49 2 -7 15 -89 28 -182 20 -148 22 -210 23 -528 0 -401 -8
-491 -70 -800 -258 -1274 -1185 -2215 -2440 -2474 -277 -58 -370 -66 -730 -66
-397 0 -522 15 -865 100 -715 178 -1349 609 -1768 1202 -257 364 -435 781
-527 1238 -62 308 -69 390 -70 795 0 325 3 383 23 533 13 93 26 175 28 182 4
10 24 -1 68 -38 34 -29 82 -67 107 -84z"/>
<path d="M3246 3564 c-104 -14 -267 -53 -326 -78 -79 -33 -97 -98 -42 -148 39
-34 76 -36 158 -8 144 50 247 64 464 64 217 0 320 -14 464 -64 82 -28 119 -26
158 8 55 50 37 115 -42 149 -181 77 -569 114 -834 77z"/>
<path d="M1571 3378 c-234 -67 -338 -500 -189 -791 29 -57 96 -126 150 -153
62 -32 153 -33 215 -3 86 41 164 155 200 289 23 88 23 271 -1 360 -61 225
-212 345 -375 298z"/>
<path d="M5273 3374 c-94 -35 -180 -150 -219 -294 -24 -89 -24 -272 -1 -360
51 -193 166 -310 305 -310 144 0 255 111 309 310 23 87 23 272 0 358 -36 134
-114 245 -201 286 -53 25 -141 29 -193 10z"/>
</g>
</svg>
