<?xml version="1.0" standalone="no"?>
<!DOCTYPE svg PUBLIC "-//W3C//DTD SVG 20010904//EN"
 "http://www.w3.org/TR/2001/REC-SVG-20010904/DTD/svg10.dtd">
<svg version="1.0" xmlns="http://www.w3.org/2000/svg"
 width="680.000000pt" height="680.000000pt" viewBox="0 0 680.000000 680.000000"
 preserveAspectRatio="xMidYMid meet">
<metadata>
Created by potrace 1.14, written by Peter Selinger 2001-2017
</metadata>
<g transform="translate(0.000000,680.000000) scale(0.100000,-0.100000)"
fill="#000000" stroke="none">
<path d="M296 6748 c6 -40 33 -145 44 -173 4 -11 13 -36 20 -55 58 -169 72
-190 239 -348 179 -170 179 -169 302 -282 51 -47 109 -101 129 -120 48 -45
225 -208 250 -230 54 -47 273 -253 408 -385 149 -146 196 -199 155 -177 -19
11 -248 197 -298 243 -16 15 -48 43 -70 63 -22 19 -54 47 -71 63 -18 15 -65
57 -105 93 -119 106 -183 163 -195 174 -6 6 -40 36 -75 67 -35 31 -83 74 -105
95 -23 22 -72 67 -110 100 -38 34 -88 79 -110 100 -94 89 -177 159 -193 166
-10 3 -35 9 -56 12 -20 4 -40 8 -44 10 -3 2 -23 7 -43 10 -21 3 -57 10 -80 15
-112 25 -238 25 -238 0 0 -11 64 -76 111 -114 13 -11 49 -40 79 -65 30 -25 62
-50 70 -57 8 -7 64 -50 123 -97 59 -48 112 -86 116 -86 5 0 11 -3 13 -7 3 -9
45 -43 98 -83 19 -14 78 -59 131 -100 54 -41 107 -82 119 -90 12 -8 30 -22 40
-30 10 -8 28 -22 40 -30 12 -8 28 -20 34 -25 6 -6 56 -44 111 -85 54 -41 106
-80 115 -87 8 -7 42 -32 75 -57 33 -25 65 -49 70 -53 9 -8 208 -159 230 -175
22 -17 95 -75 135 -108 23 -19 52 -43 64 -52 11 -10 17 -18 13 -18 -12 0 -44
18 -122 69 -38 25 -80 51 -92 58 -12 6 -28 16 -35 22 -11 10 -106 74 -157 106
-9 6 -69 46 -134 90 -65 44 -125 85 -134 90 -9 6 -22 14 -27 18 -6 5 -90 62
-186 127 -96 66 -179 123 -185 128 -5 4 -39 28 -75 52 -36 24 -66 47 -68 52
-2 4 -8 8 -13 8 -5 0 -40 23 -78 50 -38 28 -74 50 -80 50 -6 0 -11 5 -11 11 0
5 -3 8 -7 6 -5 -3 -39 -8 -78 -11 -162 -15 -229 -27 -264 -46 -26 -13 -26 -19
-3 -37 13 -10 273 -172 342 -213 8 -5 51 -31 95 -57 44 -26 89 -53 100 -59 80
-44 142 -80 297 -171 98 -57 182 -103 188 -103 5 0 10 -4 10 -10 0 -5 4 -10
10 -10 5 0 44 -20 86 -45 41 -25 79 -45 84 -45 4 0 13 -6 19 -14 7 -8 28 -22
48 -31 20 -10 77 -42 126 -71 49 -30 92 -54 94 -54 2 0 24 -13 48 -30 24 -16
46 -30 49 -30 8 0 119 -72 134 -87 7 -7 11 -13 8 -13 -24 0 -533 249 -1096
536 l-195 100 -80 -1 c-104 -2 -192 -13 -234 -31 -31 -13 -33 -15 -19 -35 18
-28 86 -64 413 -215 33 -16 62 -29 65 -29 7 -2 77 -33 125 -55 88 -40 156 -70
160 -70 2 0 32 -13 67 -29 68 -31 251 -111 333 -146 57 -24 130 -57 159 -71
16 -8 35 -14 43 -14 7 0 13 -4 13 -10 0 -5 7 -10 16 -10 9 0 33 -9 53 -19 20
-10 67 -34 105 -52 38 -18 64 -35 58 -37 -10 -3 -164 43 -187 57 -5 3 -14 6
-20 7 -12 2 -108 37 -190 69 -33 13 -103 40 -155 60 -52 20 -104 41 -115 45
-11 5 -78 32 -150 60 -71 29 -146 59 -165 68 -65 29 -299 9 -353 -31 -28 -20
-12 -41 56 -74 55 -27 305 -123 320 -123 3 0 16 -4 29 -9 13 -5 25 -8 28 -8 3
0 15 -5 28 -12 13 -7 31 -14 40 -16 14 -3 102 -32 192 -63 8 -3 20 -6 25 -8
22 -6 351 -115 365 -121 8 -4 22 -8 30 -9 8 -2 55 -17 105 -34 92 -31 132 -54
79 -44 -16 3 -40 7 -54 9 -14 2 -25 4 -25 5 0 1 -10 3 -22 6 -34 6 -234 53
-273 63 -51 14 -159 42 -178 46 -9 2 -71 18 -137 35 -182 48 -180 48 -235 37
-119 -22 -252 -74 -269 -105 -9 -17 -5 -21 27 -36 34 -15 354 -77 467 -90 28
-3 61 -8 75 -10 14 -3 45 -7 70 -11 66 -8 191 -26 220 -30 14 -2 61 -9 105
-15 44 -6 91 -14 105 -17 14 -2 36 -6 50 -7 65 -7 170 -30 170 -38 0 -9 -191
-4 -250 6 -14 3 -56 7 -95 11 -83 7 -159 15 -200 20 -16 2 -52 7 -80 10 -27 3
-59 8 -71 10 -34 7 -254 -127 -269 -163 -3 -8 -3 -17 0 -22 5 -8 91 -25 175
-34 96 -11 393 -33 545 -41 72 -4 167 -13 220 -20 11 -2 27 -4 35 -5 8 -1 2
-6 -15 -11 -28 -8 -230 -18 -451 -22 -90 -2 -91 -2 -148 -46 -112 -84 -157
-150 -103 -152 32 -2 102 -1 102 1 0 0 20 3 45 5 25 2 61 6 80 9 19 3 49 7 65
10 17 2 50 7 75 10 25 3 56 8 70 11 14 3 41 7 60 10 70 10 96 14 143 23 82 16
60 -3 -36 -33 -51 -15 -144 -45 -207 -66 -188 -62 -208 -73 -177 -96 38 -29
280 -73 292 -53 3 4 16 11 30 14 14 4 72 28 128 55 97 46 158 70 147 58 -5 -5
-65 -53 -108 -85 -13 -9 -31 -24 -40 -32 -10 -8 -44 -35 -76 -58 -70 -53 -120
-101 -129 -124 -8 -23 22 -32 100 -30 74 2 96 10 171 60 81 53 82 54 82 44 0
-9 -15 -27 -71 -89 -16 -18 -29 -37 -29 -43 0 -5 -4 -10 -9 -10 -5 0 -11 -9
-14 -20 -10 -39 40 -44 103 -10 45 24 179 167 187 201 11 40 7 148 -7 246 -6
40 -9 77 -5 83 3 5 3 10 -2 10 -4 0 -9 12 -9 28 -1 32 -12 134 -18 177 -18
115 -24 397 -13 535 4 41 9 111 13 155 11 133 5 350 -11 375 -3 5 -7 21 -9 37
-6 44 -46 205 -60 238 -7 16 -55 68 -106 115 -51 47 -105 96 -120 110 -15 14
-67 61 -115 105 -49 44 -103 94 -120 110 -43 40 -209 192 -233 213 -23 21
-175 158 -212 192 -23 21 -70 64 -226 206 -13 12 -58 52 -101 90 -42 38 -84
76 -93 84 -14 13 -70 63 -199 175 -19 17 -42 37 -50 45 -37 35 -138 110 -148
110 -7 0 -9 -13 -7 -32z"/>
<path d="M2124 5134 c55 -180 65 -438 30 -769 -5 -47 -5 -320 0 -385 4 -57 18
-173 42 -345 2 -16 6 -50 10 -75 3 -25 7 -63 10 -85 8 -65 5 -171 -6 -200 -6
-15 -35 -53 -65 -85 -69 -71 -120 -127 -145 -160 -49 -62 -88 -118 -106 -150
-10 -19 -21 -37 -24 -40 -13 -12 -90 -182 -113 -250 -32 -92 -65 -222 -72
-281 -3 -24 -7 -55 -10 -69 -28 -135 -23 -479 10 -700 10 -66 12 -80 24 -130
5 -25 12 -56 15 -70 16 -82 82 -285 99 -308 5 -6 7 -12 4 -12 -11 0 98 -230
168 -355 26 -47 162 -250 188 -281 7 -8 17 -20 22 -27 83 -101 120 -143 179
-204 85 -85 145 -135 157 -127 5 3 7 54 5 115 -3 100 -6 112 -27 132 -20 19
-147 156 -224 241 -11 12 -36 42 -55 66 -19 25 -38 47 -42 48 -4 2 -8 10 -8
18 0 8 -4 14 -8 14 -5 0 -15 12 -23 28 -8 15 -16 29 -20 32 -9 9 -119 243
-119 255 0 4 -6 21 -14 38 -26 59 -54 147 -46 147 4 0 21 -26 37 -57 17 -32
57 -107 88 -168 63 -120 125 -220 188 -305 106 -142 281 -327 292 -309 7 10
-1 113 -12 157 -5 23 -9 46 -12 83 0 9 -46 63 -102 120 -164 169 -276 300
-330 384 -32 51 -79 151 -79 170 0 7 -4 16 -9 19 -5 3 -11 18 -14 33 -3 16 -7
37 -10 48 -20 71 -43 195 -37 195 6 0 32 -74 35 -100 2 -17 29 -87 36 -95 5
-5 9 -16 9 -25 0 -8 15 -44 33 -80 55 -107 74 -138 140 -225 39 -52 104 -122
225 -243 101 -101 147 -141 155 -133 5 5 11 32 13 58 2 26 6 64 8 85 4 29 1
39 -17 52 -12 8 -38 29 -57 46 -19 17 -61 54 -94 83 -167 148 -278 279 -328
387 -26 55 -61 169 -74 235 -2 11 -6 31 -9 45 -10 44 -17 175 -9 167 4 -4 9
-13 10 -20 2 -7 5 -23 8 -37 4 -14 8 -34 10 -45 16 -73 52 -190 81 -262 43
-106 89 -176 178 -270 104 -109 331 -292 363 -293 7 0 12 27 13 73 1 39 4 86
5 104 4 38 -5 47 -89 93 -106 57 -178 117 -270 225 -58 69 -8 38 86 -54 27
-26 59 -51 65 -51 3 0 20 -10 37 -22 59 -42 239 -128 268 -128 51 0 216 65
252 100 10 9 -56 31 -136 47 -80 15 -347 133 -347 154 0 5 -4 8 -9 5 -4 -3
-23 7 -40 22 -18 15 -54 45 -80 67 -26 22 -67 66 -92 98 -24 31 -50 64 -56 71
-7 8 -13 19 -13 24 0 6 -3 12 -8 14 -9 4 -77 150 -96 208 -25 76 -42 145 -51
205 -12 89 -16 115 -19 162 -7 93 11 66 33 -50 51 -262 117 -421 243 -584 43
-56 165 -175 196 -192 17 -9 20 -6 25 38 7 60 50 182 76 220 12 16 21 33 21
39 0 12 126 139 159 161 29 18 300 219 317 235 7 6 26 22 44 36 154 119 323
300 428 455 61 92 129 217 176 325 15 36 34 79 41 95 35 80 101 265 181 505
48 146 93 280 101 297 7 18 13 35 14 38 1 20 80 174 123 239 118 181 262 287
481 355 96 29 116 34 195 47 19 3 44 7 55 9 11 2 38 4 59 4 38 1 43 12 8 17
-9 2 -35 6 -57 9 -22 4 -53 9 -70 11 -57 9 -200 34 -230 40 -16 4 -42 7 -57 7
-16 0 -28 5 -28 9 0 5 15 7 33 4 104 -15 149 -21 247 -31 36 -4 108 -12 160
-19 52 -7 127 -10 167 -7 163 14 501 1 668 -24 17 -3 47 -7 68 -10 83 -11 118
-17 185 -31 15 -3 41 -7 57 -10 17 -3 37 -8 45 -11 8 -3 22 -7 30 -8 8 -1 27
-5 43 -9 15 -3 39 -8 54 -11 14 -3 34 -10 45 -16 10 -5 18 -8 18 -5 0 3 24 -3
53 -13 28 -10 54 -19 57 -19 3 0 12 -3 20 -5 8 -3 30 -10 47 -16 21 -6 35 -6
38 0 4 5 9 7 13 5 4 -2 23 4 42 14 l35 19 -75 34 c-71 34 -300 114 -347 123
-12 2 -34 9 -48 14 -14 5 -25 7 -25 4 0 -2 -8 0 -19 5 -10 6 -33 13 -52 16
-19 3 -42 8 -51 11 -9 3 -27 7 -40 9 -13 3 -36 8 -53 11 -16 4 -37 8 -45 9 -8
1 -28 5 -45 8 -16 4 -43 9 -60 12 -16 3 -41 7 -55 10 -39 8 -103 18 -130 21
-14 1 -25 3 -25 4 0 1 -9 3 -20 4 -49 7 -112 16 -135 21 -14 2 -36 7 -50 9
-47 9 -165 26 -225 31 -22 2 -40 5 -40 5 0 1 -16 4 -35 6 -19 3 -82 12 -139
20 -57 8 -106 12 -109 10 -2 -3 -13 -1 -23 5 -14 7 -21 4 -33 -13 -25 -39
-107 -93 -188 -126 -43 -17 -78 -28 -78 -24 0 4 27 20 60 37 60 29 95 54 138
97 28 29 28 33 -5 35 -23 1 -164 27 -198 36 -36 9 -89 37 -150 77 -124 84
-214 120 -340 139 -78 12 -228 7 -285 -9 -25 -7 -52 -13 -60 -15 -38 -8 -142
-55 -151 -68 -3 -5 -10 -9 -15 -9 -23 0 -153 -98 -227 -171 -71 -70 -207 -235
-207 -251 0 -3 -13 -24 -29 -48 -15 -24 -45 -74 -66 -113 -20 -38 -39 -74 -42
-78 -4 -7 -108 78 -169 137 -12 12 -51 48 -88 81 -76 66 -74 65 -212 191 -54
50 -128 117 -164 149 -93 85 -162 148 -245 225 -30 28 -36 31 -31 14z m2023
-244 c100 -45 110 -163 19 -220 -68 -41 -197 -31 -251 20 -54 51 -54 119 2
174 48 48 156 60 230 26z m453 -214 c0 -2 -7 -7 -16 -10 -8 -3 -12 -2 -9 4 6
10 25 14 25 6z m13 -33 c-7 -2 -19 -2 -25 0 -7 3 -2 5 12 5 14 0 19 -2 13 -5z"/>
<path d="M4020 4863 c-64 -24 -77 -108 -25 -160 19 -19 77 -22 107 -5 96 55
22 203 -82 165z"/>
</g>
</svg>
