<svg width="33" height="26" viewBox="0 0 33 26" fill="none" xmlns="http://www.w3.org/2000/svg">
<g clip-path="url(#clip0_1_7)">
<path d="M27.9359 2.27644C25.8326 1.31136 23.5771 0.600323 21.2189 0.193084C21.1759 0.185224 21.133 0.204866 21.1109 0.24415C20.8208 0.760071 20.4995 1.43313 20.2745 1.96215C17.7381 1.58242 15.2146 1.58242 12.7302 1.96215C12.5051 1.42137 12.1722 0.760071 11.8808 0.24415C11.8587 0.206177 11.8158 0.186535 11.7728 0.193084C9.41588 0.599021 7.1604 1.31006 5.05579 2.27644C5.03757 2.2843 5.02195 2.29741 5.01158 2.31442C0.733414 8.70591 -0.438557 14.9403 0.136373 21.0974C0.138974 21.1275 0.155884 21.1563 0.179297 21.1747C3.00191 23.2475 5.7361 24.5059 8.41951 25.3401C8.46246 25.3532 8.50796 25.3375 8.53529 25.3021C9.17005 24.4352 9.73588 23.5212 10.221 22.5601C10.2497 22.5038 10.2223 22.437 10.1638 22.4147C9.26631 22.0743 8.4117 21.6592 7.58963 21.1878C7.5246 21.1498 7.5194 21.0568 7.57922 21.0123C7.75221 20.8826 7.92525 20.7478 8.09044 20.6116C8.12032 20.5867 8.16197 20.5815 8.19711 20.5972C13.5978 23.0629 19.4446 23.0629 24.7816 20.5972C24.8167 20.5802 24.8583 20.5854 24.8895 20.6103C25.0548 20.7465 25.2278 20.8826 25.4021 21.0123C25.4619 21.0568 25.458 21.1498 25.3929 21.1878C24.5709 21.6683 23.7163 22.0743 22.8175 22.4134C22.7589 22.4357 22.7329 22.5038 22.7615 22.5601C23.2571 23.5199 23.8229 24.4339 24.446 25.3008C24.472 25.3375 24.5188 25.3532 24.5618 25.3401C27.2582 24.5059 29.9924 23.2475 32.815 21.1747C32.8397 21.1563 32.8553 21.1288 32.8579 21.0987C33.546 13.9804 31.7054 7.79716 27.9788 2.31572C27.9697 2.29741 27.9541 2.2843 27.9359 2.27644ZM11.0275 17.3484C9.40156 17.3484 8.06181 15.8556 8.06181 14.0224C8.06181 12.1891 9.37558 10.6963 11.0275 10.6963C12.6925 10.6963 14.0192 12.2022 13.9932 14.0224C13.9932 15.8556 12.6794 17.3484 11.0275 17.3484ZM21.9928 17.3484C20.3669 17.3484 19.0271 15.8556 19.0271 14.0224C19.0271 12.1891 20.3408 10.6963 21.9928 10.6963C23.6577 10.6963 24.9845 12.2022 24.9585 14.0224C24.9585 15.8556 23.6577 17.3484 21.9928 17.3484Z" fill="url(#paint0_linear_1_7)"/>
</g>
<defs>
<linearGradient id="paint0_linear_1_7" x1="16.5" y1="0.191376" x2="16.5" y2="25.3446" gradientUnits="userSpaceOnUse">
<stop stop-color="#5802EB"/>
<stop offset="1" stop-color="#307FF4"/>
</linearGradient>
<clipPath id="clip0_1_7">
<rect width="33" height="25.5634" fill="white"/>
</clipPath>
</defs>
</svg>
