<svg width="33" height="28" viewBox="0 0 33 28" fill="none" xmlns="http://www.w3.org/2000/svg">
<path d="M32.2521 3.11806C31.7337 3.348 31.2007 3.54206 30.6561 3.69961C31.3008 2.97042 31.7924 2.11242 32.0925 1.17352C32.1598 0.963064 32.0901 0.732704 31.9171 0.595063C31.7443 0.457315 31.5043 0.440815 31.314 0.553547C30.1575 1.23952 28.9096 1.73249 27.6012 2.02076C26.2833 0.732917 24.4932 0 22.6426 0C18.7364 0 15.5584 3.17789 15.5584 7.08401C15.5584 7.39166 15.5779 7.6976 15.6164 7.99928C10.7692 7.57369 6.26276 5.1912 3.16823 1.39526C3.05794 1.25996 2.88805 1.18704 2.7141 1.20098C2.54006 1.21461 2.38368 1.31276 2.29575 1.4636C1.66811 2.54057 1.33631 3.77231 1.33631 5.02556C1.33631 6.73251 1.94574 8.35206 3.02228 9.61755C2.69494 9.50418 2.37729 9.3625 2.07412 9.1942C1.91136 9.10361 1.71272 9.10499 1.55102 9.19771C1.38921 9.29043 1.28776 9.46096 1.28351 9.64736C1.28276 9.67876 1.28276 9.71016 1.28276 9.74199C1.28276 12.2899 2.65407 14.5838 4.75062 15.8341C4.57051 15.8161 4.3905 15.79 4.21166 15.7559C4.02729 15.7206 3.8377 15.7852 3.71336 15.9259C3.58881 16.0664 3.54762 16.2622 3.60499 16.4411C4.38102 18.8639 6.37901 20.646 8.79439 21.1893C6.79108 22.4441 4.50014 23.1013 2.0952 23.1013C1.59339 23.1013 1.0887 23.0718 0.594766 23.0134C0.349396 22.9842 0.114777 23.1291 0.0312128 23.3624C-0.0523514 23.5959 0.036216 23.8562 0.244967 23.99C3.3345 25.9709 6.9069 27.018 10.5757 27.018C17.7882 27.018 22.3002 23.6169 24.8151 20.7636C27.9511 17.2059 29.7497 12.4968 29.7497 7.84397C29.7497 7.64959 29.7468 7.45329 29.7408 7.25763C30.9781 6.32544 32.0433 5.19727 32.9102 3.90059C33.0419 3.70365 33.0276 3.44338 32.875 3.26209C32.7227 3.0807 32.4688 3.02205 32.2521 3.11806Z" fill="url(#paint0_linear_2_10)"/>
<defs>
<linearGradient id="paint0_linear_2_10" x1="16.5" y1="0" x2="16.5" y2="27.018" gradientUnits="userSpaceOnUse">
<stop stop-color="#5802EB"/>
<stop offset="1" stop-color="#307FF4"/>
</linearGradient>
</defs>
</svg>
